G04 EAGLE Gerber RS-274X export*
G75*
%MOMM*%
%FSLAX34Y34*%
%LPD*%
%IN*%
%IPPOS*%
%AMOC8*
5,1,8,0,0,1.08239X$1,22.5*%
G01*
%ADD10C,0.254000*%


D10*
X200Y344D02*
X678500Y344D01*
X678500Y954944D01*
X200Y954944D01*
X200Y344D01*
X54100Y37576D02*
X54032Y36531D01*
X53895Y35492D01*
X53690Y34465D01*
X53419Y33453D01*
X53083Y32461D01*
X52682Y31493D01*
X52218Y30554D01*
X51695Y29646D01*
X51113Y28775D01*
X50475Y27944D01*
X49784Y27157D01*
X49043Y26416D01*
X48256Y25725D01*
X47425Y25088D01*
X46554Y24506D01*
X45646Y23982D01*
X44707Y23518D01*
X43739Y23117D01*
X42747Y22781D01*
X41735Y22510D01*
X40708Y22305D01*
X39669Y22169D01*
X38624Y22100D01*
X37576Y22100D01*
X36531Y22169D01*
X35492Y22305D01*
X34465Y22510D01*
X33453Y22781D01*
X32461Y23117D01*
X31493Y23518D01*
X30554Y23982D01*
X29646Y24506D01*
X28775Y25088D01*
X27944Y25725D01*
X27157Y26416D01*
X26416Y27157D01*
X25725Y27944D01*
X25088Y28775D01*
X24506Y29646D01*
X23982Y30554D01*
X23518Y31493D01*
X23117Y32461D01*
X22781Y33453D01*
X22510Y34465D01*
X22305Y35492D01*
X22169Y36531D01*
X22100Y37576D01*
X22100Y38624D01*
X22169Y39669D01*
X22305Y40708D01*
X22510Y41735D01*
X22781Y42747D01*
X23117Y43739D01*
X23518Y44707D01*
X23982Y45646D01*
X24506Y46554D01*
X25088Y47425D01*
X25725Y48256D01*
X26416Y49043D01*
X27157Y49784D01*
X27944Y50475D01*
X28775Y51113D01*
X29646Y51695D01*
X30554Y52218D01*
X31493Y52682D01*
X32461Y53083D01*
X33453Y53419D01*
X34465Y53690D01*
X35492Y53895D01*
X36531Y54032D01*
X37576Y54100D01*
X38624Y54100D01*
X39669Y54032D01*
X40708Y53895D01*
X41735Y53690D01*
X42747Y53419D01*
X43739Y53083D01*
X44707Y52682D01*
X45646Y52218D01*
X46554Y51695D01*
X47425Y51113D01*
X48256Y50475D01*
X49043Y49784D01*
X49784Y49043D01*
X50475Y48256D01*
X51113Y47425D01*
X51695Y46554D01*
X52218Y45646D01*
X52682Y44707D01*
X53083Y43739D01*
X53419Y42747D01*
X53690Y41735D01*
X53895Y40708D01*
X54032Y39669D01*
X54100Y38624D01*
X54100Y37576D01*
X651000Y37576D02*
X650932Y36531D01*
X650795Y35492D01*
X650590Y34465D01*
X650319Y33453D01*
X649983Y32461D01*
X649582Y31493D01*
X649118Y30554D01*
X648595Y29646D01*
X648013Y28775D01*
X647375Y27944D01*
X646684Y27157D01*
X645943Y26416D01*
X645156Y25725D01*
X644325Y25088D01*
X643454Y24506D01*
X642546Y23982D01*
X641607Y23518D01*
X640639Y23117D01*
X639647Y22781D01*
X638635Y22510D01*
X637608Y22305D01*
X636569Y22169D01*
X635524Y22100D01*
X634476Y22100D01*
X633431Y22169D01*
X632392Y22305D01*
X631365Y22510D01*
X630353Y22781D01*
X629361Y23117D01*
X628393Y23518D01*
X627454Y23982D01*
X626546Y24506D01*
X625675Y25088D01*
X624844Y25725D01*
X624057Y26416D01*
X623316Y27157D01*
X622625Y27944D01*
X621988Y28775D01*
X621406Y29646D01*
X620882Y30554D01*
X620418Y31493D01*
X620017Y32461D01*
X619681Y33453D01*
X619410Y34465D01*
X619205Y35492D01*
X619069Y36531D01*
X619000Y37576D01*
X619000Y38624D01*
X619069Y39669D01*
X619205Y40708D01*
X619410Y41735D01*
X619681Y42747D01*
X620017Y43739D01*
X620418Y44707D01*
X620882Y45646D01*
X621406Y46554D01*
X621988Y47425D01*
X622625Y48256D01*
X623316Y49043D01*
X624057Y49784D01*
X624844Y50475D01*
X625675Y51113D01*
X626546Y51695D01*
X627454Y52218D01*
X628393Y52682D01*
X629361Y53083D01*
X630353Y53419D01*
X631365Y53690D01*
X632392Y53895D01*
X633431Y54032D01*
X634476Y54100D01*
X635524Y54100D01*
X636569Y54032D01*
X637608Y53895D01*
X638635Y53690D01*
X639647Y53419D01*
X640639Y53083D01*
X641607Y52682D01*
X642546Y52218D01*
X643454Y51695D01*
X644325Y51113D01*
X645156Y50475D01*
X645943Y49784D01*
X646684Y49043D01*
X647375Y48256D01*
X648013Y47425D01*
X648595Y46554D01*
X649118Y45646D01*
X649582Y44707D01*
X649983Y43739D01*
X650319Y42747D01*
X650590Y41735D01*
X650795Y40708D01*
X650932Y39669D01*
X651000Y38624D01*
X651000Y37576D01*
X651000Y913876D02*
X650932Y912831D01*
X650795Y911792D01*
X650590Y910765D01*
X650319Y909753D01*
X649983Y908761D01*
X649582Y907793D01*
X649118Y906854D01*
X648595Y905946D01*
X648013Y905075D01*
X647375Y904244D01*
X646684Y903457D01*
X645943Y902716D01*
X645156Y902025D01*
X644325Y901388D01*
X643454Y900806D01*
X642546Y900282D01*
X641607Y899818D01*
X640639Y899417D01*
X639647Y899081D01*
X638635Y898810D01*
X637608Y898605D01*
X636569Y898469D01*
X635524Y898400D01*
X634476Y898400D01*
X633431Y898469D01*
X632392Y898605D01*
X631365Y898810D01*
X630353Y899081D01*
X629361Y899417D01*
X628393Y899818D01*
X627454Y900282D01*
X626546Y900806D01*
X625675Y901388D01*
X624844Y902025D01*
X624057Y902716D01*
X623316Y903457D01*
X622625Y904244D01*
X621988Y905075D01*
X621406Y905946D01*
X620882Y906854D01*
X620418Y907793D01*
X620017Y908761D01*
X619681Y909753D01*
X619410Y910765D01*
X619205Y911792D01*
X619069Y912831D01*
X619000Y913876D01*
X619000Y914924D01*
X619069Y915969D01*
X619205Y917008D01*
X619410Y918035D01*
X619681Y919047D01*
X620017Y920039D01*
X620418Y921007D01*
X620882Y921946D01*
X621406Y922854D01*
X621988Y923725D01*
X622625Y924556D01*
X623316Y925343D01*
X624057Y926084D01*
X624844Y926775D01*
X625675Y927413D01*
X626546Y927995D01*
X627454Y928518D01*
X628393Y928982D01*
X629361Y929383D01*
X630353Y929719D01*
X631365Y929990D01*
X632392Y930195D01*
X633431Y930332D01*
X634476Y930400D01*
X635524Y930400D01*
X636569Y930332D01*
X637608Y930195D01*
X638635Y929990D01*
X639647Y929719D01*
X640639Y929383D01*
X641607Y928982D01*
X642546Y928518D01*
X643454Y927995D01*
X644325Y927413D01*
X645156Y926775D01*
X645943Y926084D01*
X646684Y925343D01*
X647375Y924556D01*
X648013Y923725D01*
X648595Y922854D01*
X649118Y921946D01*
X649582Y921007D01*
X649983Y920039D01*
X650319Y919047D01*
X650590Y918035D01*
X650795Y917008D01*
X650932Y915969D01*
X651000Y914924D01*
X651000Y913876D01*
X54100Y913876D02*
X54032Y912831D01*
X53895Y911792D01*
X53690Y910765D01*
X53419Y909753D01*
X53083Y908761D01*
X52682Y907793D01*
X52218Y906854D01*
X51695Y905946D01*
X51113Y905075D01*
X50475Y904244D01*
X49784Y903457D01*
X49043Y902716D01*
X48256Y902025D01*
X47425Y901388D01*
X46554Y900806D01*
X45646Y900282D01*
X44707Y899818D01*
X43739Y899417D01*
X42747Y899081D01*
X41735Y898810D01*
X40708Y898605D01*
X39669Y898469D01*
X38624Y898400D01*
X37576Y898400D01*
X36531Y898469D01*
X35492Y898605D01*
X34465Y898810D01*
X33453Y899081D01*
X32461Y899417D01*
X31493Y899818D01*
X30554Y900282D01*
X29646Y900806D01*
X28775Y901388D01*
X27944Y902025D01*
X27157Y902716D01*
X26416Y903457D01*
X25725Y904244D01*
X25088Y905075D01*
X24506Y905946D01*
X23982Y906854D01*
X23518Y907793D01*
X23117Y908761D01*
X22781Y909753D01*
X22510Y910765D01*
X22305Y911792D01*
X22169Y912831D01*
X22100Y913876D01*
X22100Y914924D01*
X22169Y915969D01*
X22305Y917008D01*
X22510Y918035D01*
X22781Y919047D01*
X23117Y920039D01*
X23518Y921007D01*
X23982Y921946D01*
X24506Y922854D01*
X25088Y923725D01*
X25725Y924556D01*
X26416Y925343D01*
X27157Y926084D01*
X27944Y926775D01*
X28775Y927413D01*
X29646Y927995D01*
X30554Y928518D01*
X31493Y928982D01*
X32461Y929383D01*
X33453Y929719D01*
X34465Y929990D01*
X35492Y930195D01*
X36531Y930332D01*
X37576Y930400D01*
X38624Y930400D01*
X39669Y930332D01*
X40708Y930195D01*
X41735Y929990D01*
X42747Y929719D01*
X43739Y929383D01*
X44707Y928982D01*
X45646Y928518D01*
X46554Y927995D01*
X47425Y927413D01*
X48256Y926775D01*
X49043Y926084D01*
X49784Y925343D01*
X50475Y924556D01*
X51113Y923725D01*
X51695Y922854D01*
X52218Y921946D01*
X52682Y921007D01*
X53083Y920039D01*
X53419Y919047D01*
X53690Y918035D01*
X53895Y917008D01*
X54032Y915969D01*
X54100Y914924D01*
X54100Y913876D01*
X165302Y533140D02*
X165229Y531933D01*
X165084Y530733D01*
X164866Y529544D01*
X164576Y528371D01*
X164217Y527217D01*
X163788Y526087D01*
X163292Y524984D01*
X162730Y523914D01*
X162105Y522879D01*
X161418Y521885D01*
X160673Y520933D01*
X159871Y520028D01*
X159017Y519174D01*
X158112Y518372D01*
X157160Y517626D01*
X156165Y516940D01*
X155131Y516314D01*
X154061Y515753D01*
X152958Y515257D01*
X151828Y514828D01*
X150674Y514468D01*
X149500Y514179D01*
X148311Y513961D01*
X147111Y513815D01*
X145905Y513742D01*
X144696Y513742D01*
X143489Y513815D01*
X142289Y513961D01*
X141100Y514179D01*
X139927Y514468D01*
X138773Y514828D01*
X137642Y515257D01*
X136540Y515753D01*
X135470Y516314D01*
X134435Y516940D01*
X133440Y517626D01*
X132489Y518372D01*
X131584Y519174D01*
X130729Y520028D01*
X129928Y520933D01*
X129182Y521885D01*
X128496Y522879D01*
X127870Y523914D01*
X127309Y524984D01*
X126812Y526087D01*
X126384Y527217D01*
X126024Y528371D01*
X125735Y529544D01*
X125517Y530733D01*
X125371Y531933D01*
X125298Y533140D01*
X125298Y534349D01*
X125371Y535555D01*
X125517Y536755D01*
X125735Y537944D01*
X126024Y539118D01*
X126384Y540272D01*
X126812Y541402D01*
X127309Y542505D01*
X127870Y543575D01*
X128496Y544609D01*
X129182Y545604D01*
X129928Y546556D01*
X130729Y547461D01*
X131584Y548315D01*
X132489Y549117D01*
X133440Y549862D01*
X134435Y550549D01*
X135470Y551174D01*
X136540Y551736D01*
X137642Y552232D01*
X138773Y552661D01*
X139927Y553021D01*
X141100Y553310D01*
X142289Y553528D01*
X143489Y553673D01*
X144696Y553746D01*
X145905Y553746D01*
X147111Y553673D01*
X148311Y553528D01*
X149500Y553310D01*
X150674Y553021D01*
X151828Y552661D01*
X152958Y552232D01*
X154061Y551736D01*
X155131Y551174D01*
X156165Y550549D01*
X157160Y549862D01*
X158112Y549117D01*
X159017Y548315D01*
X159871Y547461D01*
X160673Y546556D01*
X161418Y545604D01*
X162105Y544609D01*
X162730Y543575D01*
X163292Y542505D01*
X163788Y541402D01*
X164217Y540272D01*
X164576Y539118D01*
X164866Y537944D01*
X165084Y536755D01*
X165229Y535555D01*
X165302Y534349D01*
X165302Y533140D01*
X165302Y342640D02*
X165229Y341433D01*
X165084Y340233D01*
X164866Y339044D01*
X164576Y337871D01*
X164217Y336717D01*
X163788Y335587D01*
X163292Y334484D01*
X162730Y333414D01*
X162105Y332379D01*
X161418Y331385D01*
X160673Y330433D01*
X159871Y329528D01*
X159017Y328674D01*
X158112Y327872D01*
X157160Y327126D01*
X156165Y326440D01*
X155131Y325814D01*
X154061Y325253D01*
X152958Y324757D01*
X151828Y324328D01*
X150674Y323968D01*
X149500Y323679D01*
X148311Y323461D01*
X147111Y323315D01*
X145905Y323242D01*
X144696Y323242D01*
X143489Y323315D01*
X142289Y323461D01*
X141100Y323679D01*
X139927Y323968D01*
X138773Y324328D01*
X137642Y324757D01*
X136540Y325253D01*
X135470Y325814D01*
X134435Y326440D01*
X133440Y327126D01*
X132489Y327872D01*
X131584Y328674D01*
X130729Y329528D01*
X129928Y330433D01*
X129182Y331385D01*
X128496Y332379D01*
X127870Y333414D01*
X127309Y334484D01*
X126812Y335587D01*
X126384Y336717D01*
X126024Y337871D01*
X125735Y339044D01*
X125517Y340233D01*
X125371Y341433D01*
X125298Y342640D01*
X125298Y343849D01*
X125371Y345055D01*
X125517Y346255D01*
X125735Y347444D01*
X126024Y348618D01*
X126384Y349772D01*
X126812Y350902D01*
X127309Y352005D01*
X127870Y353075D01*
X128496Y354109D01*
X129182Y355104D01*
X129928Y356056D01*
X130729Y356961D01*
X131584Y357815D01*
X132489Y358617D01*
X133440Y359362D01*
X134435Y360049D01*
X135470Y360674D01*
X136540Y361236D01*
X137642Y361732D01*
X138773Y362161D01*
X139927Y362521D01*
X141100Y362810D01*
X142289Y363028D01*
X143489Y363173D01*
X144696Y363246D01*
X145905Y363246D01*
X147111Y363173D01*
X148311Y363028D01*
X149500Y362810D01*
X150674Y362521D01*
X151828Y362161D01*
X152958Y361732D01*
X154061Y361236D01*
X155131Y360674D01*
X156165Y360049D01*
X157160Y359362D01*
X158112Y358617D01*
X159017Y357815D01*
X159871Y356961D01*
X160673Y356056D01*
X161418Y355104D01*
X162105Y354109D01*
X162730Y353075D01*
X163292Y352005D01*
X163788Y350902D01*
X164217Y349772D01*
X164576Y348618D01*
X164866Y347444D01*
X165084Y346255D01*
X165229Y345055D01*
X165302Y343849D01*
X165302Y342640D01*
X165302Y152140D02*
X165229Y150933D01*
X165084Y149733D01*
X164866Y148544D01*
X164576Y147371D01*
X164217Y146217D01*
X163788Y145087D01*
X163292Y143984D01*
X162730Y142914D01*
X162105Y141879D01*
X161418Y140885D01*
X160673Y139933D01*
X159871Y139028D01*
X159017Y138174D01*
X158112Y137372D01*
X157160Y136626D01*
X156165Y135940D01*
X155131Y135314D01*
X154061Y134753D01*
X152958Y134257D01*
X151828Y133828D01*
X150674Y133468D01*
X149500Y133179D01*
X148311Y132961D01*
X147111Y132815D01*
X145905Y132742D01*
X144696Y132742D01*
X143489Y132815D01*
X142289Y132961D01*
X141100Y133179D01*
X139927Y133468D01*
X138773Y133828D01*
X137642Y134257D01*
X136540Y134753D01*
X135470Y135314D01*
X134435Y135940D01*
X133440Y136626D01*
X132489Y137372D01*
X131584Y138174D01*
X130729Y139028D01*
X129928Y139933D01*
X129182Y140885D01*
X128496Y141879D01*
X127870Y142914D01*
X127309Y143984D01*
X126812Y145087D01*
X126384Y146217D01*
X126024Y147371D01*
X125735Y148544D01*
X125517Y149733D01*
X125371Y150933D01*
X125298Y152140D01*
X125298Y153349D01*
X125371Y154555D01*
X125517Y155755D01*
X125735Y156944D01*
X126024Y158118D01*
X126384Y159272D01*
X126812Y160402D01*
X127309Y161505D01*
X127870Y162575D01*
X128496Y163609D01*
X129182Y164604D01*
X129928Y165556D01*
X130729Y166461D01*
X131584Y167315D01*
X132489Y168117D01*
X133440Y168862D01*
X134435Y169549D01*
X135470Y170174D01*
X136540Y170736D01*
X137642Y171232D01*
X138773Y171661D01*
X139927Y172021D01*
X141100Y172310D01*
X142289Y172528D01*
X143489Y172673D01*
X144696Y172746D01*
X145905Y172746D01*
X147111Y172673D01*
X148311Y172528D01*
X149500Y172310D01*
X150674Y172021D01*
X151828Y171661D01*
X152958Y171232D01*
X154061Y170736D01*
X155131Y170174D01*
X156165Y169549D01*
X157160Y168862D01*
X158112Y168117D01*
X159017Y167315D01*
X159871Y166461D01*
X160673Y165556D01*
X161418Y164604D01*
X162105Y163609D01*
X162730Y162575D01*
X163292Y161505D01*
X163788Y160402D01*
X164217Y159272D01*
X164576Y158118D01*
X164866Y156944D01*
X165084Y155755D01*
X165229Y154555D01*
X165302Y153349D01*
X165302Y152140D01*
X355802Y152140D02*
X355729Y150933D01*
X355584Y149733D01*
X355366Y148544D01*
X355076Y147371D01*
X354717Y146217D01*
X354288Y145087D01*
X353792Y143984D01*
X353230Y142914D01*
X352605Y141879D01*
X351918Y140885D01*
X351173Y139933D01*
X350371Y139028D01*
X349517Y138174D01*
X348612Y137372D01*
X347660Y136626D01*
X346665Y135940D01*
X345631Y135314D01*
X344561Y134753D01*
X343458Y134257D01*
X342328Y133828D01*
X341174Y133468D01*
X340000Y133179D01*
X338811Y132961D01*
X337611Y132815D01*
X336405Y132742D01*
X335196Y132742D01*
X333989Y132815D01*
X332789Y132961D01*
X331600Y133179D01*
X330427Y133468D01*
X329273Y133828D01*
X328142Y134257D01*
X327040Y134753D01*
X325970Y135314D01*
X324935Y135940D01*
X323940Y136626D01*
X322989Y137372D01*
X322084Y138174D01*
X321229Y139028D01*
X320428Y139933D01*
X319682Y140885D01*
X318996Y141879D01*
X318370Y142914D01*
X317809Y143984D01*
X317312Y145087D01*
X316884Y146217D01*
X316524Y147371D01*
X316235Y148544D01*
X316017Y149733D01*
X315871Y150933D01*
X315798Y152140D01*
X315798Y153349D01*
X315871Y154555D01*
X316017Y155755D01*
X316235Y156944D01*
X316524Y158118D01*
X316884Y159272D01*
X317312Y160402D01*
X317809Y161505D01*
X318370Y162575D01*
X318996Y163609D01*
X319682Y164604D01*
X320428Y165556D01*
X321229Y166461D01*
X322084Y167315D01*
X322989Y168117D01*
X323940Y168862D01*
X324935Y169549D01*
X325970Y170174D01*
X327040Y170736D01*
X328142Y171232D01*
X329273Y171661D01*
X330427Y172021D01*
X331600Y172310D01*
X332789Y172528D01*
X333989Y172673D01*
X335196Y172746D01*
X336405Y172746D01*
X337611Y172673D01*
X338811Y172528D01*
X340000Y172310D01*
X341174Y172021D01*
X342328Y171661D01*
X343458Y171232D01*
X344561Y170736D01*
X345631Y170174D01*
X346665Y169549D01*
X347660Y168862D01*
X348612Y168117D01*
X349517Y167315D01*
X350371Y166461D01*
X351173Y165556D01*
X351918Y164604D01*
X352605Y163609D01*
X353230Y162575D01*
X353792Y161505D01*
X354288Y160402D01*
X354717Y159272D01*
X355076Y158118D01*
X355366Y156944D01*
X355584Y155755D01*
X355729Y154555D01*
X355802Y153349D01*
X355802Y152140D01*
X355802Y342640D02*
X355729Y341433D01*
X355584Y340233D01*
X355366Y339044D01*
X355076Y337871D01*
X354717Y336717D01*
X354288Y335587D01*
X353792Y334484D01*
X353230Y333414D01*
X352605Y332379D01*
X351918Y331385D01*
X351173Y330433D01*
X350371Y329528D01*
X349517Y328674D01*
X348612Y327872D01*
X347660Y327126D01*
X346665Y326440D01*
X345631Y325814D01*
X344561Y325253D01*
X343458Y324757D01*
X342328Y324328D01*
X341174Y323968D01*
X340000Y323679D01*
X338811Y323461D01*
X337611Y323315D01*
X336405Y323242D01*
X335196Y323242D01*
X333989Y323315D01*
X332789Y323461D01*
X331600Y323679D01*
X330427Y323968D01*
X329273Y324328D01*
X328142Y324757D01*
X327040Y325253D01*
X325970Y325814D01*
X324935Y326440D01*
X323940Y327126D01*
X322989Y327872D01*
X322084Y328674D01*
X321229Y329528D01*
X320428Y330433D01*
X319682Y331385D01*
X318996Y332379D01*
X318370Y333414D01*
X317809Y334484D01*
X317312Y335587D01*
X316884Y336717D01*
X316524Y337871D01*
X316235Y339044D01*
X316017Y340233D01*
X315871Y341433D01*
X315798Y342640D01*
X315798Y343849D01*
X315871Y345055D01*
X316017Y346255D01*
X316235Y347444D01*
X316524Y348618D01*
X316884Y349772D01*
X317312Y350902D01*
X317809Y352005D01*
X318370Y353075D01*
X318996Y354109D01*
X319682Y355104D01*
X320428Y356056D01*
X321229Y356961D01*
X322084Y357815D01*
X322989Y358617D01*
X323940Y359362D01*
X324935Y360049D01*
X325970Y360674D01*
X327040Y361236D01*
X328142Y361732D01*
X329273Y362161D01*
X330427Y362521D01*
X331600Y362810D01*
X332789Y363028D01*
X333989Y363173D01*
X335196Y363246D01*
X336405Y363246D01*
X337611Y363173D01*
X338811Y363028D01*
X340000Y362810D01*
X341174Y362521D01*
X342328Y362161D01*
X343458Y361732D01*
X344561Y361236D01*
X345631Y360674D01*
X346665Y360049D01*
X347660Y359362D01*
X348612Y358617D01*
X349517Y357815D01*
X350371Y356961D01*
X351173Y356056D01*
X351918Y355104D01*
X352605Y354109D01*
X353230Y353075D01*
X353792Y352005D01*
X354288Y350902D01*
X354717Y349772D01*
X355076Y348618D01*
X355366Y347444D01*
X355584Y346255D01*
X355729Y345055D01*
X355802Y343849D01*
X355802Y342640D01*
X355802Y533140D02*
X355729Y531933D01*
X355584Y530733D01*
X355366Y529544D01*
X355076Y528371D01*
X354717Y527217D01*
X354288Y526087D01*
X353792Y524984D01*
X353230Y523914D01*
X352605Y522879D01*
X351918Y521885D01*
X351173Y520933D01*
X350371Y520028D01*
X349517Y519174D01*
X348612Y518372D01*
X347660Y517626D01*
X346665Y516940D01*
X345631Y516314D01*
X344561Y515753D01*
X343458Y515257D01*
X342328Y514828D01*
X341174Y514468D01*
X340000Y514179D01*
X338811Y513961D01*
X337611Y513815D01*
X336405Y513742D01*
X335196Y513742D01*
X333989Y513815D01*
X332789Y513961D01*
X331600Y514179D01*
X330427Y514468D01*
X329273Y514828D01*
X328142Y515257D01*
X327040Y515753D01*
X325970Y516314D01*
X324935Y516940D01*
X323940Y517626D01*
X322989Y518372D01*
X322084Y519174D01*
X321229Y520028D01*
X320428Y520933D01*
X319682Y521885D01*
X318996Y522879D01*
X318370Y523914D01*
X317809Y524984D01*
X317312Y526087D01*
X316884Y527217D01*
X316524Y528371D01*
X316235Y529544D01*
X316017Y530733D01*
X315871Y531933D01*
X315798Y533140D01*
X315798Y534349D01*
X315871Y535555D01*
X316017Y536755D01*
X316235Y537944D01*
X316524Y539118D01*
X316884Y540272D01*
X317312Y541402D01*
X317809Y542505D01*
X318370Y543575D01*
X318996Y544609D01*
X319682Y545604D01*
X320428Y546556D01*
X321229Y547461D01*
X322084Y548315D01*
X322989Y549117D01*
X323940Y549862D01*
X324935Y550549D01*
X325970Y551174D01*
X327040Y551736D01*
X328142Y552232D01*
X329273Y552661D01*
X330427Y553021D01*
X331600Y553310D01*
X332789Y553528D01*
X333989Y553673D01*
X335196Y553746D01*
X336405Y553746D01*
X337611Y553673D01*
X338811Y553528D01*
X340000Y553310D01*
X341174Y553021D01*
X342328Y552661D01*
X343458Y552232D01*
X344561Y551736D01*
X345631Y551174D01*
X346665Y550549D01*
X347660Y549862D01*
X348612Y549117D01*
X349517Y548315D01*
X350371Y547461D01*
X351173Y546556D01*
X351918Y545604D01*
X352605Y544609D01*
X353230Y543575D01*
X353792Y542505D01*
X354288Y541402D01*
X354717Y540272D01*
X355076Y539118D01*
X355366Y537944D01*
X355584Y536755D01*
X355729Y535555D01*
X355802Y534349D01*
X355802Y533140D01*
X546302Y152140D02*
X546229Y150933D01*
X546084Y149733D01*
X545866Y148544D01*
X545576Y147371D01*
X545217Y146217D01*
X544788Y145087D01*
X544292Y143984D01*
X543730Y142914D01*
X543105Y141879D01*
X542418Y140885D01*
X541673Y139933D01*
X540871Y139028D01*
X540017Y138174D01*
X539112Y137372D01*
X538160Y136626D01*
X537165Y135940D01*
X536131Y135314D01*
X535061Y134753D01*
X533958Y134257D01*
X532828Y133828D01*
X531674Y133468D01*
X530500Y133179D01*
X529311Y132961D01*
X528111Y132815D01*
X526905Y132742D01*
X525696Y132742D01*
X524489Y132815D01*
X523289Y132961D01*
X522100Y133179D01*
X520927Y133468D01*
X519773Y133828D01*
X518642Y134257D01*
X517540Y134753D01*
X516470Y135314D01*
X515435Y135940D01*
X514440Y136626D01*
X513489Y137372D01*
X512584Y138174D01*
X511729Y139028D01*
X510928Y139933D01*
X510182Y140885D01*
X509496Y141879D01*
X508870Y142914D01*
X508309Y143984D01*
X507812Y145087D01*
X507384Y146217D01*
X507024Y147371D01*
X506735Y148544D01*
X506517Y149733D01*
X506371Y150933D01*
X506298Y152140D01*
X506298Y153349D01*
X506371Y154555D01*
X506517Y155755D01*
X506735Y156944D01*
X507024Y158118D01*
X507384Y159272D01*
X507812Y160402D01*
X508309Y161505D01*
X508870Y162575D01*
X509496Y163609D01*
X510182Y164604D01*
X510928Y165556D01*
X511729Y166461D01*
X512584Y167315D01*
X513489Y168117D01*
X514440Y168862D01*
X515435Y169549D01*
X516470Y170174D01*
X517540Y170736D01*
X518642Y171232D01*
X519773Y171661D01*
X520927Y172021D01*
X522100Y172310D01*
X523289Y172528D01*
X524489Y172673D01*
X525696Y172746D01*
X526905Y172746D01*
X528111Y172673D01*
X529311Y172528D01*
X530500Y172310D01*
X531674Y172021D01*
X532828Y171661D01*
X533958Y171232D01*
X535061Y170736D01*
X536131Y170174D01*
X537165Y169549D01*
X538160Y168862D01*
X539112Y168117D01*
X540017Y167315D01*
X540871Y166461D01*
X541673Y165556D01*
X542418Y164604D01*
X543105Y163609D01*
X543730Y162575D01*
X544292Y161505D01*
X544788Y160402D01*
X545217Y159272D01*
X545576Y158118D01*
X545866Y156944D01*
X546084Y155755D01*
X546229Y154555D01*
X546302Y153349D01*
X546302Y152140D01*
X546302Y342640D02*
X546229Y341433D01*
X546084Y340233D01*
X545866Y339044D01*
X545576Y337871D01*
X545217Y336717D01*
X544788Y335587D01*
X544292Y334484D01*
X543730Y333414D01*
X543105Y332379D01*
X542418Y331385D01*
X541673Y330433D01*
X540871Y329528D01*
X540017Y328674D01*
X539112Y327872D01*
X538160Y327126D01*
X537165Y326440D01*
X536131Y325814D01*
X535061Y325253D01*
X533958Y324757D01*
X532828Y324328D01*
X531674Y323968D01*
X530500Y323679D01*
X529311Y323461D01*
X528111Y323315D01*
X526905Y323242D01*
X525696Y323242D01*
X524489Y323315D01*
X523289Y323461D01*
X522100Y323679D01*
X520927Y323968D01*
X519773Y324328D01*
X518642Y324757D01*
X517540Y325253D01*
X516470Y325814D01*
X515435Y326440D01*
X514440Y327126D01*
X513489Y327872D01*
X512584Y328674D01*
X511729Y329528D01*
X510928Y330433D01*
X510182Y331385D01*
X509496Y332379D01*
X508870Y333414D01*
X508309Y334484D01*
X507812Y335587D01*
X507384Y336717D01*
X507024Y337871D01*
X506735Y339044D01*
X506517Y340233D01*
X506371Y341433D01*
X506298Y342640D01*
X506298Y343849D01*
X506371Y345055D01*
X506517Y346255D01*
X506735Y347444D01*
X507024Y348618D01*
X507384Y349772D01*
X507812Y350902D01*
X508309Y352005D01*
X508870Y353075D01*
X509496Y354109D01*
X510182Y355104D01*
X510928Y356056D01*
X511729Y356961D01*
X512584Y357815D01*
X513489Y358617D01*
X514440Y359362D01*
X515435Y360049D01*
X516470Y360674D01*
X517540Y361236D01*
X518642Y361732D01*
X519773Y362161D01*
X520927Y362521D01*
X522100Y362810D01*
X523289Y363028D01*
X524489Y363173D01*
X525696Y363246D01*
X526905Y363246D01*
X528111Y363173D01*
X529311Y363028D01*
X530500Y362810D01*
X531674Y362521D01*
X532828Y362161D01*
X533958Y361732D01*
X535061Y361236D01*
X536131Y360674D01*
X537165Y360049D01*
X538160Y359362D01*
X539112Y358617D01*
X540017Y357815D01*
X540871Y356961D01*
X541673Y356056D01*
X542418Y355104D01*
X543105Y354109D01*
X543730Y353075D01*
X544292Y352005D01*
X544788Y350902D01*
X545217Y349772D01*
X545576Y348618D01*
X545866Y347444D01*
X546084Y346255D01*
X546229Y345055D01*
X546302Y343849D01*
X546302Y342640D01*
X546302Y533140D02*
X546229Y531933D01*
X546084Y530733D01*
X545866Y529544D01*
X545576Y528371D01*
X545217Y527217D01*
X544788Y526087D01*
X544292Y524984D01*
X543730Y523914D01*
X543105Y522879D01*
X542418Y521885D01*
X541673Y520933D01*
X540871Y520028D01*
X540017Y519174D01*
X539112Y518372D01*
X538160Y517626D01*
X537165Y516940D01*
X536131Y516314D01*
X535061Y515753D01*
X533958Y515257D01*
X532828Y514828D01*
X531674Y514468D01*
X530500Y514179D01*
X529311Y513961D01*
X528111Y513815D01*
X526905Y513742D01*
X525696Y513742D01*
X524489Y513815D01*
X523289Y513961D01*
X522100Y514179D01*
X520927Y514468D01*
X519773Y514828D01*
X518642Y515257D01*
X517540Y515753D01*
X516470Y516314D01*
X515435Y516940D01*
X514440Y517626D01*
X513489Y518372D01*
X512584Y519174D01*
X511729Y520028D01*
X510928Y520933D01*
X510182Y521885D01*
X509496Y522879D01*
X508870Y523914D01*
X508309Y524984D01*
X507812Y526087D01*
X507384Y527217D01*
X507024Y528371D01*
X506735Y529544D01*
X506517Y530733D01*
X506371Y531933D01*
X506298Y533140D01*
X506298Y534349D01*
X506371Y535555D01*
X506517Y536755D01*
X506735Y537944D01*
X507024Y539118D01*
X507384Y540272D01*
X507812Y541402D01*
X508309Y542505D01*
X508870Y543575D01*
X509496Y544609D01*
X510182Y545604D01*
X510928Y546556D01*
X511729Y547461D01*
X512584Y548315D01*
X513489Y549117D01*
X514440Y549862D01*
X515435Y550549D01*
X516470Y551174D01*
X517540Y551736D01*
X518642Y552232D01*
X519773Y552661D01*
X520927Y553021D01*
X522100Y553310D01*
X523289Y553528D01*
X524489Y553673D01*
X525696Y553746D01*
X526905Y553746D01*
X528111Y553673D01*
X529311Y553528D01*
X530500Y553310D01*
X531674Y553021D01*
X532828Y552661D01*
X533958Y552232D01*
X535061Y551736D01*
X536131Y551174D01*
X537165Y550549D01*
X538160Y549862D01*
X539112Y549117D01*
X540017Y548315D01*
X540871Y547461D01*
X541673Y546556D01*
X542418Y545604D01*
X543105Y544609D01*
X543730Y543575D01*
X544292Y542505D01*
X544788Y541402D01*
X545217Y540272D01*
X545576Y539118D01*
X545866Y537944D01*
X546084Y536755D01*
X546229Y535555D01*
X546302Y534349D01*
X546302Y533140D01*
M02*
